<svg id="Layer_1" data-name="Layer 1" xmlns="http://www.w3.org/2000/svg" width="50" height="50" viewBox="0 0 32.6 31.8">
  <title>GitHub-Mark</title>
  <path
    d="M152.6,383.4a16.3,16.3,0,0,0-5.1,31.7,0.8,0.8,0,0,0,1.1-.8c0-.4,0-1.4,0-2.8-4.5,1-5.5-2.2-5.5-2.2a4.3,4.3,0,0,0-1.8-2.4c-1.5-1,.1-1,0.1-1a3.4,3.4,0,0,1,2.5,1.7,3.5,3.5,0,0,0,4.7,1.4,3.5,3.5,0,0,1,1-2.2c-3.6-.4-7.4-1.8-7.4-8.1a6.3,6.3,0,0,1,1.7-4.4,5.9,5.9,0,0,1,.2-4.3s1.4-.4,4.5,1.7a15.4,15.4,0,0,1,8.2,0c3.1-2.1,4.5-1.7,4.5-1.7a5.9,5.9,0,0,1,.2,4.3,6.3,6.3,0,0,1,1.7,4.4c0,6.3-3.8,7.6-7.4,8a3.9,3.9,0,0,1,1.1,3c0,2.2,0,3.9,0,4.5a0.8,0.8,0,0,0,1.1.8A16.3,16.3,0,0,0,152.6,383.4Z"
    transform="translate(-136.3 -383.4)"
    fill="black"
    fill-rule="evenodd"/>
</svg>
