<?xml version="1.0" encoding="utf-8"?>
<!-- Generator: Adobe Illustrator 21.0.1, SVG Export Plug-In . SVG Version: 6.00 Build 0)  -->
<svg version="1.1" id="Layer_1" xmlns="http://www.w3.org/2000/svg" xmlns:xlink="http://www.w3.org/1999/xlink" x="0px" y="0px"
	 viewBox="0 0 32 32" style="enable-background:new 0 0 32 32;" xml:space="preserve">
<path d="M28.6-28.1h-24c-1.1,0-2-0.9-2-2v0c0-1.1,0.9-2,2-2h24c1.1,0,2,0.9,2,2v0C30.6-29,29.7-28.1,28.6-28.1z"/>
<path d="M28.6-20.1h-24c-1.1,0-2-0.9-2-2v0c0-1.1,0.9-2,2-2h24c1.1,0,2,0.9,2,2v0C30.6-21,29.7-20.1,28.6-20.1z"/>
<path d="M28.6-12.1h-24c-1.1,0-2-0.9-2-2v0c0-1.1,0.9-2,2-2h24c1.1,0,2,0.9,2,2v0C30.6-13,29.7-12.1,28.6-12.1z"/>
<path d="M28,10H4c-1.1,0-2-0.9-2-2v0c0-1.1,0.9-2,2-2h24c1.1,0,2,0.9,2,2v0C30,9.1,29.1,10,28,10z"/>
<path d="M6,8v24c0,1.1-0.9,2-2,2h0c-1.1,0-2-0.9-2-2V8c0-1.1,0.9-2,2-2h0C5.1,6,6,6.9,6,8z"/>
<path d="M26,32V8c0-1.1,0.9-2,2-2h0c1.1,0,2,0.9,2,2v24c0,1.1-0.9,2-2,2h0C26.9,34,26,33.1,26,32z"/>
</svg>
